<svg xmlns="http://www.w3.org/2000/svg" viewBox="0 0 181.83 63.93"><defs><style>.cls-1,.cls-4{isolation:isolate;}.cls-1{font-size:20px;font-family:BaskOldFace, Baskerville Old Face;}.cls-1,.cls-2{fill:#04304b;}.cls-3{fill:#ea1e52;}</style></defs><title>Asset 5</title><g id="Layer_2" data-name="Layer 2"><g id="Layer_1-2" data-name="Layer 1"><text class="cls-1" transform="translate(64.94 16.67) scale(1.14 1)">HOUSE</text><text class="cls-1" transform="translate(64.94 37.67) scale(1.14 1)">OF</text><text class="cls-1" transform="translate(64.94 58.67) scale(1.14 1)">FINGIMOR</text><polygon class="cls-2" points="2.86 56.42 2.86 33.42 0 33.42 0 59.3 25.84 59.3 25.84 56.42 2.86 56.42"/><polygon class="cls-3" points="54.37 56.42 31.61 56.42 31.61 59.3 57.24 59.3 57.24 33.42 54.37 33.42 54.37 56.42"/><polygon class="cls-2" points="31.61 1.73 31.61 4.61 54.37 4.61 54.37 27.61 57.24 27.61 57.24 1.73 31.61 1.73"/><polygon class="cls-3" points="0 1.73 0 27.61 2.86 27.61 2.86 4.61 25.84 4.61 25.84 1.73 0 1.73"/><g class="cls-4"><path class="cls-3" d="M40.43,42.88c0,.25-.26.37-.76.37H30.92c-.54,0-.8-.11-.8-.32s.62-.37,1.87-.45c.66,0,1-.17,1.15-.35a5.9,5.9,0,0,0,.16-1.88V28.4H21.18V39.91a4.51,4.51,0,0,0,.28,2.16q.28.33,1.89.45,1,.07,1,.36c0,.25-.27.37-.81.37H14.85c-.53,0-.8-.11-.8-.32s.27-.36.8-.41l1.09-.08A1.61,1.61,0,0,0,17.07,42a9.86,9.86,0,0,0,.12-2.27V18.31A6.75,6.75,0,0,0,17,16.16c-.12-.22-.55-.34-1.27-.37s-1.32-.1-1.47-.13-.22-.14-.22-.34.17-.34.52-.34l.69,0c.67.05,2.25.08,4.75.08,1.37,0,2.32,0,2.86-.06a3.52,3.52,0,0,1,.72-.06c.49,0,.73.13.73.41s-.44.36-1.31.36-1.4.11-1.57.31A3.91,3.91,0,0,0,21.18,18v9.38H33.3V18.61A5.59,5.59,0,0,0,33,16.06c-.22-.26-1-.37-2.26-.35-.4,0-.6-.12-.6-.37s.22-.36.68-.36h8.78c.56,0,.85.12.85.36s-.59.38-1.78.41a2.77,2.77,0,0,0-.76.08.66.66,0,0,0-.5.45,9.59,9.59,0,0,0-.1,1.91V39.83a7,7,0,0,0,.19,2.28q.41.45,2.31.45C40.21,42.5,40.43,42.61,40.43,42.88Z"/></g></g></g></svg>