<svg xmlns="http://www.w3.org/2000/svg" viewBox="0 0 28.75 29.24"><defs><style>.cls-1{fill:#fff;stroke:#000;stroke-miterlimit:10;stroke-width:0.5px;}</style></defs><title>Asset 1</title><g id="Layer_2" data-name="Layer 2"><g id="Layer_1-2" data-name="Layer 1"><ellipse cx="13.7" cy="4.47" rx="1.53" ry="1.39"/><path d="M13.7,5.9a1.55,1.55,0,0,1-1.63-1.43A1.55,1.55,0,0,1,13.7,3a1.55,1.55,0,0,1,1.63,1.44A1.58,1.58,0,0,1,13.7,5.9Zm0-2.78a1.36,1.36,0,0,0-1.43,1.3A1.38,1.38,0,0,0,13.7,5.71a1.35,1.35,0,0,0,1.44-1.29A1.43,1.43,0,0,0,13.7,3.12Z"/><ellipse cx="13.7" cy="2.26" rx="0.91" ry="0.81"/><path d="M13.7,3.17a.91.91,0,0,1-.95-.86,1,1,0,0,1,1.91,0A.91.91,0,0,1,13.7,3.17Zm0-1.67a.8.8,0,0,0-.86.76A.81.81,0,0,0,13.7,3a.82.82,0,0,0,.87-.77A.81.81,0,0,0,13.7,1.5Z"/><ellipse class="cls-1" cx="13.7" cy="0.87" rx="0.58" ry="0.53"/><path class="cls-1" d="M13.7,1.4a.6.6,0,0,1-.62-.58.63.63,0,0,1,1.25,0A.6.6,0,0,1,13.7,1.4Zm0-1a.52.52,0,0,0-.52.48.49.49,0,0,0,.52.48.53.53,0,0,0,.53-.48A.5.5,0,0,0,13.7.39Z"/><path d="M.19,29.05V16.78c0-6,5.46-11,12.17-11H15c5.94,0,10.92,3.88,12,9H26.5c-1-4.7-5.51-8.29-11-8.53H11.64c-6.13.34-11,4.94-11,10.54V29H.19Z"/><path d="M15.24,6H11.93C5.56,6.24.48,11,.48,16.78V29.05H.86V16.78c0-5.46,4.65-9.92,10.54-10.4.34,0,.67,0,1,0H15a6.19,6.19,0,0,1,.86,0c5.22.34,9.49,3.84,10.49,8.34h.39C25.64,9.83,20.94,6.14,15.24,6ZM15,5.57H12.41C5.56,5.57,0,10.6,0,16.78V29.05H.38V16.78C.38,10.89,5.61,6.1,12.07,6h3c5.84,0,10.68,3.84,11.74,8.82h.38C26.11,9.55,21,5.57,15,5.57Z"/><path d="M13.42,5.23l-.1.34-.1.33V6s0,.1,0,.19,0,.1,0,.19A57.58,57.58,0,0,0,11.4,20.23v8.82h-.76V20.23A59.58,59.58,0,0,1,12.27,6.67,13.8,13.8,0,0,0,9.49,9.26,16.92,16.92,0,0,0,6,20.14v8.91H5.22V20.14C5.22,12,9.3,8,11.4,6.38a.69.69,0,0,0,.24-.19c.1-.05.2-.14.29-.19s.1,0,.14-.1a2.9,2.9,0,0,0,.29-.19.85.85,0,0,1,.29-.14h0Z"/><path d="M21.75,14.72h-.81a15.15,15.15,0,0,0-2.73-5.17A11.21,11.21,0,0,0,15.43,7a58.06,58.06,0,0,1,1.34,7.71H16a59.7,59.7,0,0,0-1.48-8.38v0l0-.15L14.42,6l-.05-.09-.09-.34h.05l.33.19L15,5.9h.05a.44.44,0,0,0,.14.1,1.2,1.2,0,0,1,.29.19h0a1.16,1.16,0,0,1,.28.19A14.36,14.36,0,0,1,21.75,14.72Z"/><path d="M18.5,22.67s-3.93-.81-4.6-6.9c0,0,7.28-.33,9.82,4.56,0,0,2.44,5.27-2.16,6.51A4.14,4.14,0,0,0,22.9,21c-2.2-3.69-7.47-3.55-7.47-3.55S14.9,19.51,18.5,22.67Z"/><path d="M20.56,29.24A5.56,5.56,0,0,0,22.09,29c2.68-.91,3.88-4.07,4.36-5.41.1-.2.14-.44.19-.53.19-.29,1.1-.29,1.63-.15l.48.1-.14-.43c-1.15-3.21-4.8-2.06-4.8-2.06L24,21c.14-.05,2.83-.86,4,1.29a2,2,0,0,0-1.68.43,2.36,2.36,0,0,0-.29.63c-.48,1.29-1.58,4.26-4,5.07-1.59.53-3.5.1-5.66-1.29l1.15.86C19.07,29.05,19.17,29.24,20.56,29.24Z"/><circle cx="26.5" cy="21.67" r="0.24"/></g></g></svg>